<svg xmlns="http://www.w3.org/2000/svg" width="32" height="50" viewBox="0 0 32 50" fill="none"><mask id="mask0_414_544" style="mask-type:luminance" maskUnits="userSpaceOnUse" x="0" y="0" width="32" height="50"><path d="M0.324219 0.807129H31.9076V49.1613H0.324219V0.807129Z" fill="white"></path></mask><g mask="url(#mask0_414_544)"><path d="M0.324219 9.63525V5.43213C0.324219 2.89046 2.39193 0.822754 4.93359 0.822754H27.2513C29.793 0.822754 31.8555 2.89046 31.8555 5.43213C31.8555 5.68734 31.6523 5.89567 31.3971 5.89567C31.1419 5.89567 30.9336 5.68734 30.9336 5.43213C30.9336 3.40609 29.2826 1.75505 27.2513 1.75505H4.93359C2.90755 1.75505 1.2513 3.40609 1.2513 5.43213V9.17171H0.787762C0.532552 9.17171 0.324219 9.38005 0.324219 9.63525ZM30.9284 44.4425C30.9284 46.4738 29.2773 48.1248 27.2513 48.1248H4.93359C2.90755 48.1248 1.2513 46.4738 1.2513 44.4425V40.7082H0.787762C0.532552 40.7082 0.324219 40.4998 0.324219 40.2446V44.4425C0.324219 46.9842 2.39193 49.0519 4.93359 49.0519H27.2513C29.793 49.0519 31.8555 46.9842 31.8555 44.4425C31.8555 44.1873 31.6523 43.979 31.3971 43.979C31.1367 43.979 30.9284 44.1873 30.9284 44.4425ZM23.7305 24.354C22.2044 24.354 20.9544 25.5988 20.9544 27.13C20.9544 28.4998 21.9596 29.6405 23.2669 29.8592V33.9269C23.2669 36.1457 21.4596 37.953 19.2409 37.953C17.0221 37.953 15.2148 36.1457 15.2148 33.9269V25.5884C18.8346 25.3488 21.7096 22.328 21.7096 18.6509V14.2759C21.7096 13.0207 20.8138 11.9738 19.6211 11.7394C19.4544 11.3228 19.0534 11.0259 18.5794 11.0259C17.9544 11.0259 17.4492 11.5311 17.4492 12.1509C17.4492 12.7759 17.9544 13.2811 18.5794 13.2811C19.0065 13.2811 19.3763 13.0363 19.569 12.6821C20.2669 12.88 20.7826 13.5155 20.7826 14.2707V18.6457C20.7826 21.9738 18.0742 24.6769 14.7513 24.6769C11.4232 24.6769 8.72005 21.9738 8.72005 18.6457V14.2759C8.72005 13.4321 9.35547 12.7394 10.168 12.6405C10.3503 13.0207 10.7357 13.2863 11.1836 13.2863C11.8086 13.2863 12.3138 12.7759 12.3138 12.1561C12.3138 11.5311 11.8086 11.0311 11.1836 11.0311C10.7253 11.0311 10.3242 11.3071 10.1523 11.703C8.83464 11.8175 7.79297 12.9269 7.79297 14.2759V18.6509C7.79297 22.328 10.6628 25.3488 14.2826 25.5884V33.9269C14.2826 36.6613 16.5065 38.88 19.2409 38.88C21.9701 38.88 24.194 36.6613 24.194 33.9269V29.8592C25.5065 29.6405 26.5065 28.4998 26.5065 27.13C26.5065 25.5988 25.2617 24.354 23.7305 24.354ZM18.5794 12.354C18.4701 12.354 18.3763 12.2603 18.3763 12.1509C18.3763 12.0415 18.4701 11.953 18.5794 11.953C18.6888 11.953 18.7773 12.0415 18.7773 12.1509C18.7773 12.2655 18.6888 12.354 18.5794 12.354ZM11.1888 11.953C11.2982 11.953 11.3867 12.0467 11.3867 12.1561C11.3867 12.2655 11.2982 12.354 11.1888 12.354C11.0742 12.354 10.9857 12.2655 10.9857 12.1561C10.9857 12.0467 11.0742 11.953 11.1888 11.953ZM23.7305 28.979C22.7148 28.979 21.8815 28.1457 21.8815 27.13C21.8815 26.1092 22.7148 25.2811 23.7305 25.2811C24.7513 25.2811 25.5794 26.1092 25.5794 27.13C25.5794 28.1457 24.7513 28.979 23.7305 28.979ZM16.0951 42.7342C14.9076 42.7342 14.2826 43.6717 14.2826 44.5884C14.2826 45.5103 14.9023 46.4478 16.0951 46.4478C16.6419 46.4478 17.1211 46.2342 17.4544 45.8488C17.7409 45.5155 17.9023 45.0675 17.9023 44.5884C17.8971 43.6665 17.2773 42.7342 16.0951 42.7342ZM16.0951 45.5155C15.444 45.5155 15.2148 45.0155 15.2148 44.5884C15.2148 44.1613 15.444 43.6613 16.0951 43.6613C16.7409 43.6613 16.9753 44.1613 16.9753 44.5884C16.9701 45.0155 16.7409 45.5155 16.0951 45.5155ZM23.7305 25.7603C22.9805 25.7603 22.3659 26.3696 22.3659 27.13C22.3659 27.88 22.9805 28.4998 23.7305 28.4998C24.4857 28.4998 25.1003 27.8853 25.1003 27.13C25.1003 26.3748 24.4857 25.7603 23.7305 25.7603ZM23.7305 27.5675C23.4909 27.5675 23.293 27.3696 23.293 27.1248C23.293 26.88 23.4857 26.6821 23.7305 26.6821C23.9753 26.6821 24.1732 26.88 24.1732 27.1248C24.1732 27.3696 23.9753 27.5675 23.7305 27.5675ZM22.0898 4.80192C22.0898 5.05713 21.8815 5.26025 21.6315 5.26025H10.5586C10.3034 5.26025 10.0951 5.05713 10.0951 4.80192C10.0951 4.54671 10.3034 4.33838 10.5586 4.33838H21.6315C21.8815 4.33838 22.0898 4.54671 22.0898 4.80192ZM31.8555 9.63525V19.3436C31.8555 19.5988 31.6523 19.8071 31.3971 19.8071C31.1419 19.8071 30.9336 19.5988 30.9336 19.3436V10.104H1.2513V39.7811H30.9284V27.1717C30.9284 26.9165 31.1367 26.7082 31.3919 26.7082C31.6471 26.7082 31.8555 26.9165 31.8555 27.1717V40.2446C31.8555 40.4998 31.6471 40.7082 31.3919 40.7082H0.787762C0.532552 40.7082 0.324219 40.4998 0.324219 40.2446V9.63525C0.324219 9.38005 0.532552 9.17692 0.787762 9.17692H31.3919C31.6523 9.17171 31.8555 9.38005 31.8555 9.63525Z" fill="#FF8F8F"></path></g></svg>