<svg xmlns="http://www.w3.org/2000/svg" width="49" height="51" viewBox="0 0 49 51" fill="none"><path d="M25.4966 19.5103C23.3821 19.5103 21.3456 18.9686 19.6164 17.9478C19.481 17.8696 19.3196 17.854 19.1737 17.9009L14.1425 19.5155L16.4654 15.5519C16.5696 15.3748 16.5644 15.1509 16.4498 14.979C15.5956 13.6769 15.1477 12.1978 15.1477 10.703C15.1477 5.84359 19.7883 1.89046 25.4966 1.89046C31.1998 1.89046 35.8404 5.84359 35.8404 10.703C35.8404 15.5571 31.1998 19.5103 25.4966 19.5103ZM36.9289 10.703C36.9289 5.24463 31.7987 0.807129 25.4966 0.807129C19.1894 0.807129 14.0644 5.24463 14.0644 10.703C14.0644 12.3019 14.5123 13.88 15.3612 15.2863L12.4862 20.1873C12.3716 20.3853 12.3873 20.63 12.5279 20.8019C12.6373 20.9321 12.7935 21.005 12.955 21.005C13.0071 21.005 13.0644 20.9998 13.1216 20.979L19.2779 19.005C21.1269 20.0467 23.2727 20.5936 25.4966 20.5936C31.7987 20.5936 36.9289 16.1561 36.9289 10.703Z" fill="#FFFA99"></path><path d="M12.5918 43.0987H6.71155C5.70113 43.0987 4.8053 42.4164 4.53967 41.4372L1.15947 28.932C1.08134 28.6456 0.784466 28.4737 0.498007 28.5518C0.20634 28.6299 0.0344653 28.9268 0.11259 29.2185L3.4928 41.7237C3.88342 43.1716 5.21155 44.1872 6.71155 44.1872H12.5918C12.8938 44.1872 13.1334 43.9424 13.1334 43.6456C13.1334 43.3435 12.8938 43.0987 12.5918 43.0987Z" fill="#FFFA99"></path><mask id="mask0_414_496" style="mask-type:luminance" maskUnits="userSpaceOnUse" x="1" y="15" width="21" height="36"><path d="M1.375 15.4685H21.375V50.1456H1.375V15.4685Z" fill="white"></path></mask><g mask="url(#mask0_414_496)"><path d="M19.8802 48.5674C19.6458 48.8799 19.2917 49.0518 18.8646 49.0518C18.3125 49.0518 17.8229 48.682 17.6771 48.1507L15.9323 41.8382C15.7031 41.0101 14.9427 40.432 14.0833 40.432H9.80208C8.38021 40.432 7.13021 39.4788 6.75521 38.1091L4.52083 29.9059C4.10937 28.3955 4.26042 26.9841 4.91667 26.1195C5.38021 25.5153 6.06771 25.208 6.96875 25.208H7.05208C8.46354 25.208 8.84896 25.9476 9.44792 27.7653L11.3333 33.5205C11.4062 33.7445 11.6146 33.8955 11.849 33.8955H16.2604C16.9635 33.8955 17.5417 34.4684 17.5417 35.208C17.5417 35.9163 16.9635 36.4893 16.2604 36.4893H10.8854C10.2292 36.4893 9.64062 36.0726 9.42708 35.4476L7.125 28.734C7.02604 28.4476 6.71875 28.3018 6.4375 28.3955C6.20833 28.4736 6.06771 28.682 6.06771 28.9111C6.06771 28.9684 6.07812 29.0257 6.09896 29.083L8.40104 35.7966C8.76562 36.8591 9.76042 37.5726 10.8854 37.5726H15.6458C16.6615 37.5726 17.5521 38.2549 17.8229 39.2341L20.0885 47.4945C20.1927 47.8695 20.1146 48.2601 19.8802 48.5674ZM3.11458 20.6195C3.11458 18.6924 4.6875 17.1195 6.61458 17.1195C8.54687 17.1195 10.1198 18.6924 10.1198 20.6195C10.1198 22.5518 8.54687 24.1247 6.61458 24.1247C4.6875 24.1247 3.11458 22.5518 3.11458 20.6195ZM18.8698 38.9476C18.6667 38.2028 18.2135 37.5726 17.625 37.1403C18.2292 36.708 18.625 35.9945 18.625 35.1716C18.625 33.8695 17.5625 32.807 16.2604 32.807H12.2448L10.4792 27.4268C10.1354 26.3903 9.76562 25.2601 8.84896 24.6247C10.2552 23.8382 11.2031 22.3382 11.2031 20.6195C11.2031 18.0934 9.14583 16.0361 6.61458 16.0361C4.08854 16.0361 2.03125 18.0934 2.03125 20.6195C2.03125 22.4788 3.14062 24.0778 4.72917 24.8018C4.47917 24.984 4.25 25.2028 4.05729 25.4632C3.19271 26.5882 2.97396 28.359 3.47396 30.1924L5.70833 38.3955C6.20833 40.2341 7.89583 41.5205 9.80208 41.5205H14.0833C14.4583 41.5205 14.7865 41.7705 14.8854 42.1299L16.6302 48.4424C16.9115 49.4424 17.8281 50.1403 18.901 50.1403C19.6302 50.1403 20.3021 49.807 20.7448 49.2288C21.1875 48.6455 21.3281 47.9111 21.1354 47.208L18.8698 38.9476Z" fill="#FFFA99"></path></g><path d="M48.4844 28.5518C48.1979 28.4737 47.8958 28.6456 47.8177 28.932L44.4375 41.4372C44.1719 42.4164 43.2813 43.0987 42.2656 43.0987H36.3906C36.0885 43.0987 35.8438 43.3435 35.8438 43.6456C35.8438 43.9424 36.0885 44.1872 36.3906 44.1872H42.2656C43.7708 44.1872 45.0937 43.1716 45.4896 41.7237L48.8698 29.2185C48.9479 28.9268 48.776 28.6299 48.4844 28.5518Z" fill="#FFFA99"></path><mask id="mask1_414_496" style="mask-type:luminance" maskUnits="userSpaceOnUse" x="26" y="15" width="23" height="36"><path d="M26.7031 15.4685H48.0365V50.1456H26.7031V15.4685Z" fill="white"></path></mask><g mask="url(#mask1_414_496)"><path d="M33.0455 41.8382L31.2955 48.1507C31.1497 48.682 30.6601 49.0518 30.0715 49.0518C29.6861 49.0518 29.332 48.8799 29.0924 48.5674C28.858 48.2601 28.7851 47.8695 28.884 47.4945L31.1549 39.2341C31.4205 38.2549 32.3163 37.5726 33.332 37.5726H38.0924C39.2122 37.5726 40.2122 36.8591 40.5767 35.7966L42.8788 29.083C42.8997 29.0257 42.9049 28.9684 42.9049 28.9111C42.9049 28.682 42.7642 28.4736 42.5403 28.3955C42.2538 28.3018 41.9465 28.4476 41.8528 28.734L39.5507 35.4476C39.3372 36.0674 38.7486 36.4893 38.0924 36.4893H32.7174C32.009 36.4893 31.4361 35.9163 31.4361 35.1716C31.4361 34.4684 32.009 33.8955 32.7174 33.8955H37.1236C37.358 33.8955 37.5715 33.7445 37.6445 33.5205L39.5299 27.7653C40.1288 25.9476 40.509 25.208 41.9205 25.208H42.009C42.9049 25.208 43.5976 25.5153 44.0611 26.1195C44.7174 26.9841 44.8632 28.3955 44.457 29.9059L42.2174 38.1091C41.8476 39.4788 40.5924 40.432 39.1757 40.432H34.8945C34.0351 40.432 33.2747 41.0101 33.0455 41.8382ZM38.858 20.6195C38.858 18.6924 40.4309 17.1195 42.358 17.1195C44.2903 17.1195 45.8632 18.6924 45.8632 20.6195C45.8632 22.5518 44.2903 24.1247 42.358 24.1247C40.4309 24.1247 38.858 22.5518 38.858 20.6195ZM43.2695 38.3955L45.5038 30.1924C46.0038 28.359 45.7851 26.5934 44.9205 25.4632C44.7226 25.2028 44.4986 24.984 44.2486 24.8018C45.8372 24.0778 46.9465 22.4788 46.9465 20.6195C46.9465 18.0934 44.8892 16.0361 42.358 16.0361C39.832 16.0361 37.7747 18.0934 37.7747 20.6195C37.7747 22.3382 38.7226 23.8382 40.1236 24.6247C39.2122 25.2601 38.8424 26.3903 38.4986 27.4268L36.733 32.807H32.7174C31.4101 32.807 30.3528 33.8695 30.3528 35.208C30.3528 36.0049 30.7486 36.7132 31.3528 37.1403C30.759 37.5778 30.3111 38.2028 30.108 38.9476L27.8372 47.208C27.6445 47.9111 27.7903 48.6455 28.233 49.2288C28.6757 49.807 29.3476 50.1403 30.1132 50.1403C31.1497 50.1403 32.0663 49.4424 32.3424 48.4424L34.0924 42.1299C34.1913 41.7705 34.5195 41.5205 34.8945 41.5205H39.1757C41.082 41.5205 42.7642 40.2341 43.2695 38.3955Z" fill="#FFFA99"></path></g><path d="M25.7422 4.90089C24.8672 4.89047 24.0495 5.19777 23.4245 5.80714C22.8047 6.41131 22.4609 7.22381 22.4609 8.0936C22.4609 8.39568 22.7005 8.63527 23.0026 8.63527C23.3047 8.63527 23.5443 8.39568 23.5443 8.0936C23.5443 7.52068 23.7734 6.98422 24.1849 6.58318C24.5964 6.18214 25.1276 5.9686 25.7109 5.98943C26.8099 6.02068 27.7266 6.93735 27.7578 8.03631C27.7839 8.96339 27.2109 9.79152 26.3307 10.0884C25.6016 10.3384 25.112 10.9999 25.112 11.7446V12.8644C25.112 13.1665 25.3516 13.4061 25.6536 13.4061C25.9505 13.4061 26.1953 13.1665 26.1953 12.8644V11.7446C26.1953 11.4634 26.3828 11.2186 26.6797 11.1196C28.013 10.6665 28.8828 9.41652 28.8464 8.00506C28.7995 6.33839 27.4089 4.94777 25.7422 4.90089Z" fill="#FFFA99"></path><path d="M25.651 14.4529C25.349 14.4529 25.1094 14.6977 25.1094 14.9945V15.0102C25.1094 15.3123 25.349 15.5466 25.651 15.5466C25.9479 15.5466 26.1927 15.2966 26.1927 14.9945C26.1927 14.6977 25.9479 14.4529 25.651 14.4529Z" fill="#FFFA99"></path></svg>