<svg xmlns="http://www.w3.org/2000/svg" width="26" height="27" viewBox="0 0 26 27" fill="none"><path d="M24.5208 11.2685L13.8183 1.481C13.4703 1.16281 13.0122 0.990611 12.5395 1.0004C12.0668 1.01018 11.6162 1.20119 11.2819 1.5335L1.43873 11.318L0.933594 11.8201V26.2444H10.4188V17.2444H15.5925V26.2444H25.0777V11.7779L24.5208 11.2685ZM12.5766 2.71432C12.5918 2.71432 12.5824 2.71758 12.5759 2.72396C12.5691 2.71758 12.5614 2.71432 12.5766 2.71432ZM23.3532 24.5302H17.3171V17.2444C17.3171 16.7898 17.1354 16.3538 16.812 16.0323C16.4886 15.7108 16.0499 15.5302 15.5925 15.5302H10.4188C9.96141 15.5302 9.52275 15.7108 9.19933 16.0323C8.87591 16.3538 8.69421 16.7898 8.69421 17.2444V24.5302H2.65818L2.65818 12.5302L12.5766 2.74566L12.5779 2.74378L23.3532 12.5302V24.5302Z" fill="white" stroke="white" stroke-width="0.6"></path></svg>