<svg xmlns="http://www.w3.org/2000/svg" width="28" height="28" viewBox="0 0 28 28" fill="none"><path d="M26.1882 21.7846L21.7698 17.3925L18.3712 15.9968C19.5028 14.3972 20.1091 12.4888 20.1069 10.5333C20.1069 5.27661 15.8046 1 10.5163 1C5.22808 1 0.925781 5.27661 0.925781 10.5333C0.925781 15.79 5.22808 20.0666 10.5163 20.0666C12.5007 20.0689 14.4364 19.4558 16.0538 18.3129L17.4542 21.682L21.8725 26.0743C22.1558 26.356 22.4922 26.5794 22.8624 26.7319C23.2327 26.8843 23.6295 26.9628 24.0302 26.9628C24.431 26.9628 24.8278 26.8844 25.198 26.7319C25.5683 26.5795 25.9047 26.3561 26.1881 26.0744C26.4715 25.7928 26.6962 25.4584 26.8496 25.0903C27.003 24.7223 27.0819 24.3279 27.0819 23.9295C27.0819 23.5312 27.003 23.1367 26.8497 22.7687C26.6963 22.4007 26.4716 22.0662 26.1882 21.7846ZM2.66952 10.5333C2.66952 6.23249 6.1897 2.73333 10.5163 2.73333C14.843 2.73333 18.3632 6.23249 18.3632 10.5333C18.3632 14.8341 14.843 18.3333 10.5163 18.3333C6.1897 18.3333 2.66952 14.8341 2.66952 10.5333ZM24.9551 24.8487C24.7097 25.0921 24.3771 25.2288 24.0303 25.2288C23.6836 25.2288 23.351 25.0921 23.1056 24.8487L18.933 20.701L17.631 17.5683L20.7826 18.8626L24.9552 23.0102C25.2001 23.2542 25.3376 23.5848 25.3376 23.9294C25.3376 24.2741 25.2 24.6047 24.9551 24.8487Z" fill="white" stroke="white" stroke-width="0.6"></path></svg>