<svg xmlns="http://www.w3.org/2000/svg" width="30" height="21" viewBox="0 0 30 21" fill="none"><path d="M24.3797 4.2H12.1735V11.2361H10.8734V8.84444C10.8719 7.48937 10.3297 6.19023 9.36582 5.23204C8.40189 4.27385 7.09496 3.73486 5.73175 3.73333H2.78413V0H0.90625V20.0667H2.78413V17.2817L27.1965 17.4758V20.0667H29.0744V8.86667C29.073 7.62942 28.5779 6.44325 27.6978 5.56839C26.8177 4.69352 25.6244 4.20141 24.3797 4.2ZM2.78413 5.6H5.73175C6.59707 5.60097 7.42666 5.9431 8.03853 6.55132C8.6504 7.15953 8.99458 7.98418 8.99556 8.84433V11.236H2.78413V5.6ZM27.1965 15.6091L2.78413 15.4149V13.1028H27.1965V15.6091ZM27.1965 11.2361H14.0514V6.06667H24.3797C25.1265 6.06752 25.8425 6.36279 26.3706 6.88771C26.8986 7.41263 27.1957 8.12432 27.1965 8.86667V11.2361Z" fill="white"></path></svg>