<svg xmlns="http://www.w3.org/2000/svg" width="50" height="50" viewBox="0 0 50 50" fill="none"><path fill-rule="evenodd" clip-rule="evenodd" d="M47.9766 26.0935C47.9766 25.1352 47.6849 24.182 47.1016 23.3695L40.6016 29.8748C41.4089 30.4581 42.362 30.7498 43.3203 30.7498C44.5078 30.7498 45.7057 30.2966 46.6172 29.3852C47.5182 28.4789 47.9766 27.2862 47.9766 26.0935ZM38.6589 26.0935C38.6589 24.9008 39.112 23.7081 40.0234 22.7966C40.9349 21.8904 42.1224 21.432 43.3203 21.432C44.2734 21.432 45.2318 21.7289 46.0391 22.3123L39.5339 28.8123C38.9557 28.005 38.6589 27.0466 38.6589 26.0935ZM49.4818 26.0935C49.4818 27.6664 48.8776 29.2445 47.6693 30.4477C46.4714 31.6508 44.8932 32.2498 43.3203 32.2498C41.7422 32.2498 40.1641 31.6508 38.9609 30.4477C37.7578 29.2445 37.1589 27.6664 37.1589 26.0935C37.1589 24.5154 37.7578 22.9425 38.9609 21.7341C40.1641 20.5362 41.7422 19.932 43.3203 19.932C44.8932 19.932 46.4714 20.5362 47.6693 21.7341C48.8776 22.9425 49.4818 24.5154 49.4818 26.0935ZM6.55469 30.5466H8.14844V21.6352H6.55469C4.42969 21.6352 3.07552 22.781 2.48698 24.2393C2.2526 24.8227 2.13802 25.4529 2.13802 26.0935C2.13802 26.7289 2.2526 27.3643 2.48698 27.9425C3.07552 29.406 4.42969 30.5466 6.55469 30.5466ZM11.2422 21.6352H9.64844V30.5466H11.2422C13.3672 30.5466 14.7214 29.406 15.3099 27.9425C15.5443 27.3643 15.6589 26.7289 15.6589 26.0935C15.6589 25.4529 15.5443 24.8227 15.3099 24.2393C14.7214 22.781 13.3672 21.6352 11.2422 21.6352ZM11.2422 32.0466H6.55469C3.71094 32.0466 1.89844 30.4945 1.09635 28.4998C0.789062 27.7341 0.632812 26.9112 0.632812 26.0935C0.632812 25.2706 0.789062 24.4477 1.09635 23.682C1.89844 21.6925 3.71094 20.1352 6.55469 20.1352H11.2422C14.0755 20.1352 15.8984 21.6925 16.6953 23.682C17.0026 24.4477 17.1536 25.2706 17.1536 26.0935C17.1536 26.9112 17.0026 27.7341 16.6953 28.4998C15.8984 30.4945 14.0755 32.0466 11.2422 32.0466ZM29.3984 41.2602H27.5547C27.138 41.2602 26.8047 40.9268 26.8047 40.5102V38.6664H25.2734V40.5102C25.2734 40.9268 24.9349 41.2602 24.5234 41.2602H22.6797V42.7914H24.5234C24.9349 42.7914 25.2734 43.1248 25.2734 43.5414V45.3852H26.8047V43.5414C26.8047 43.1248 27.138 42.7914 27.5547 42.7914H29.3984V41.2602ZM30.9036 40.5102V43.5414C30.9036 43.9529 30.5651 44.2914 30.1484 44.2914H28.3099V46.1352C28.3099 46.5518 27.9661 46.8852 27.5547 46.8852H24.5234C24.1068 46.8852 23.7734 46.5518 23.7734 46.1352V44.2914H21.9297C21.513 44.2914 21.1797 43.9529 21.1797 43.5414V40.5102C21.1797 40.0987 21.513 39.7602 21.9297 39.7602H23.7734V37.9164C23.7734 37.4998 24.1068 37.1664 24.5234 37.1664H27.5547C27.9661 37.1664 28.3099 37.4998 28.3099 37.9164V39.7602H30.1484C30.5651 39.7602 30.9036 40.0987 30.9036 40.5102ZM32.6536 42.0258C32.6536 43.8539 31.9141 45.505 30.7161 46.7029C29.5234 47.9008 27.8672 48.6404 26.0391 48.6404C24.2109 48.6404 22.5599 47.9008 21.362 46.7029C20.1589 45.505 19.4193 43.8539 19.4193 42.0258C19.4193 40.1977 20.1589 38.5414 21.362 37.3487C22.5599 36.1508 24.2109 35.4112 26.0391 35.4112C27.8672 35.4112 29.5234 36.1508 30.7161 37.3487C31.9141 38.5414 32.6536 40.1977 32.6536 42.0258ZM31.7786 36.2862C33.2474 37.755 34.1536 39.7862 34.1536 42.0258C34.1536 44.2654 33.2474 46.2966 31.7786 47.7654C30.3047 49.2341 28.2839 50.1404 26.0391 50.1404C23.7995 50.1404 21.7682 49.2341 20.2995 47.7654C18.8307 46.2966 17.9193 44.2654 17.9193 42.0258C17.9193 39.7862 18.8307 37.755 20.2995 36.2862C21.7682 34.8175 23.7995 33.906 26.0391 33.906C28.2839 33.906 30.3047 34.8175 31.7786 36.2862ZM25.6745 9.9633L28.5807 11.6404C28.9349 11.8435 29.3984 11.7237 29.5964 11.3643C29.8099 11.005 29.6797 10.5518 29.3255 10.3435L26.737 8.84871V4.31746C26.737 3.90601 26.4036 3.56746 25.987 3.56746C25.5703 3.56746 25.2422 3.90601 25.2422 4.31746V9.28101C25.2422 9.58309 25.4193 9.84351 25.6745 9.9633ZM19.3516 8.76017C19.3516 6.92684 20.0964 5.27059 21.2943 4.06746C22.4922 2.86955 24.1536 2.12476 25.987 2.12476C27.8203 2.12476 29.4766 2.86955 30.6797 4.06746C31.8776 5.27059 32.6224 6.92684 32.6224 8.76017C32.6224 10.5935 31.8776 12.2498 30.6797 13.4529C29.4766 14.6508 27.8203 15.3956 25.987 15.3956C24.1536 15.3956 22.4922 14.6508 21.2943 13.4529C20.0964 12.2498 19.3516 10.5935 19.3516 8.76017ZM20.237 14.5154C18.763 13.0414 17.8516 11.005 17.8516 8.76017C17.8516 6.51538 18.763 4.47892 20.237 3.01017C21.7057 1.53621 23.7422 0.624756 25.987 0.624756C28.2318 0.624756 30.2682 1.53621 31.737 3.01017C33.2109 4.47892 34.1224 6.51538 34.1224 8.76017C34.1224 11.005 33.2109 13.0414 31.737 14.5154C30.2682 15.9841 28.2318 16.8956 25.987 16.8956C23.7422 16.8956 21.7057 15.9841 20.237 14.5154ZM16.1693 10.8643C14.7786 11.7602 13.5182 12.8487 12.4245 14.0831C11.3359 15.3175 10.4036 16.6925 9.6849 18.182C9.50781 18.557 9.66406 19.005 10.0391 19.182C10.4036 19.3643 10.8568 19.2081 11.0339 18.8331C11.6953 17.4685 12.5443 16.2029 13.5443 15.0727C14.5443 13.9425 15.7005 12.9477 16.9766 12.1248C17.3255 11.9008 17.4297 11.4373 17.2057 11.0883C16.987 10.7393 16.5182 10.6404 16.1693 10.8643ZM16.8568 39.9581C15.5859 39.1248 14.4349 38.1195 13.4505 36.9893C12.4557 35.8539 11.6224 34.5779 10.9609 33.2029C10.7839 32.8279 10.3359 32.6664 9.96094 32.8435C9.59115 33.0258 9.42969 33.4737 9.60677 33.8435C10.3151 35.3383 11.237 36.7289 12.3203 37.9737C13.4036 39.2133 14.6589 40.307 16.0339 41.2133C16.3828 41.4373 16.8464 41.3435 17.0755 40.9945C17.2995 40.6508 17.2057 40.1873 16.8568 39.9581ZM41.9766 32.7862C41.6068 32.6091 41.1536 32.7706 40.987 33.1456C40.3411 34.5206 39.5026 35.7914 38.5234 36.9373C37.5286 38.0831 36.3932 39.0935 35.1224 39.932C34.7786 40.1612 34.6849 40.6248 34.9141 40.9685C35.138 41.3175 35.6016 41.4112 35.9505 41.182C37.3307 40.2654 38.5755 39.1612 39.6484 37.9164C40.7266 36.6716 41.6276 35.281 42.3411 33.7758C42.5078 33.406 42.3516 32.9581 41.9766 32.7862ZM34.8099 11.156C35.0391 10.807 35.5026 10.7081 35.8464 10.9373C37.2422 11.8383 38.4922 12.932 39.5755 14.1664C40.6641 15.406 41.5807 16.7914 42.2943 18.2862C42.4714 18.6612 42.3151 19.1039 41.9401 19.2862C41.5755 19.4633 41.1224 19.307 40.9453 18.932C40.2891 17.5623 39.4453 16.2914 38.4505 15.1508C37.4557 14.0154 36.3099 13.0206 35.0339 12.1873C34.6901 11.9633 34.5911 11.4998 34.8099 11.156Z" fill="#FF948F"></path></svg>