<svg xmlns="http://www.w3.org/2000/svg" width="100" height="100" viewBox="0 0 100 100" fill="none"><rect width="100" height="100" rx="50" fill="url(#paint0_linear_185_77)"></rect><mask id="mask0_185_77" style="mask-type:luminance" maskUnits="userSpaceOnUse" x="20" y="20" width="60" height="60"><path d="M20.8145 20.923H79.1842V79.0771H20.8145V20.923Z" fill="white"></path></mask><g mask="url(#mask0_185_77)"><path fill-rule="evenodd" clip-rule="evenodd" d="M76.8244 50.8412C76.8244 49.7073 76.4793 48.5796 75.7891 47.6183L68.0985 55.315C69.0536 56.0052 70.1814 56.3503 71.3152 56.3503C72.7202 56.3503 74.1376 55.8142 75.216 54.7358C76.2821 53.6635 76.8244 52.2523 76.8244 50.8412ZM65.7999 50.8412C65.7999 49.43 66.336 48.0188 67.4145 46.9404C68.4929 45.8682 69.8979 45.3259 71.3152 45.3259C72.4429 45.3259 73.5768 45.6771 74.532 46.3673L66.8352 54.0579C66.1512 53.1028 65.7999 51.9689 65.7999 50.8412ZM78.6053 50.8412C78.6053 52.7022 77.8904 54.5694 76.4608 55.9929C75.0434 57.4164 73.1763 58.1251 71.3152 58.1251C69.448 58.1251 67.5808 57.4164 66.1573 55.9929C64.7338 54.5694 64.0252 52.7022 64.0252 50.8412C64.0252 48.974 64.7338 47.1129 66.1573 45.6833C67.5808 44.2659 69.448 43.5511 71.3152 43.5511C73.1763 43.5511 75.0434 44.2659 76.4608 45.6833C77.8904 47.1129 78.6053 48.974 78.6053 50.8412ZM27.8152 56.11H29.7009V45.5662H27.8152C25.3009 45.5662 23.6987 46.9219 23.0024 48.6474C22.7251 49.3376 22.5895 50.0832 22.5895 50.8412C22.5895 51.593 22.7251 52.3448 23.0024 53.0288C23.6987 54.7604 25.3009 56.11 27.8152 56.11ZM33.3613 45.5662H31.4756V56.11H33.3613C35.8755 56.11 37.4778 54.7604 38.1741 53.0288C38.4514 52.3448 38.587 51.593 38.587 50.8412C38.587 50.0832 38.4514 49.3376 38.1741 48.6474C37.4778 46.9219 35.8755 45.5662 33.3613 45.5662ZM33.3613 57.8847H27.8152C24.4505 57.8847 22.306 56.0484 21.357 53.6882C20.9935 52.7823 20.8086 51.8087 20.8086 50.8412C20.8086 49.8675 20.9935 48.8939 21.357 47.988C22.306 45.634 24.4505 43.7914 27.8152 43.7914H33.3613C36.7136 43.7914 38.8704 45.634 39.8133 47.988C40.1769 48.8939 40.3556 49.8675 40.3556 50.8412C40.3556 51.8087 40.1769 52.7823 39.8133 53.6882C38.8704 56.0484 36.7136 57.8847 33.3613 57.8847ZM54.8433 68.7859H52.6618C52.1688 68.7859 51.7744 68.3915 51.7744 67.8986V65.7171H49.9627V67.8986C49.9627 68.3915 49.5621 68.7859 49.0753 68.7859H46.8938V70.5977H49.0753C49.5621 70.5977 49.9627 70.9921 49.9627 71.485V73.6665H51.7744V71.485C51.7744 70.9921 52.1688 70.5977 52.6618 70.5977H54.8433V68.7859ZM56.6242 67.8986V71.485C56.6242 71.9719 56.2236 72.3724 55.7306 72.3724H53.5553V74.5539C53.5553 75.0469 53.1486 75.4413 52.6618 75.4413H49.0753C48.5823 75.4413 48.1879 75.0469 48.1879 74.5539V72.3724H46.0064C45.5135 72.3724 45.1191 71.9719 45.1191 71.485V67.8986C45.1191 67.4117 45.5135 67.0112 46.0064 67.0112H48.1879V64.8297C48.1879 64.3367 48.5823 63.9423 49.0753 63.9423H52.6618C53.1486 63.9423 53.5553 64.3367 53.5553 64.8297V67.0112H55.7306C56.2236 67.0112 56.6242 67.4117 56.6242 67.8986ZM58.6947 69.6918C58.6947 71.8548 57.8197 73.8083 56.4023 75.2256C54.9912 76.6429 53.0315 77.518 50.8685 77.518C48.7056 77.518 46.7521 76.6429 45.3348 75.2256C43.9112 73.8083 43.0362 71.8548 43.0362 69.6918C43.0362 67.5288 43.9112 65.5692 45.3348 64.158C46.7521 62.7407 48.7056 61.8656 50.8685 61.8656C53.0315 61.8656 54.9912 62.7407 56.4023 64.158C57.8197 65.5692 58.6947 67.5288 58.6947 69.6918ZM57.6595 62.9009C59.3972 64.6387 60.4695 67.042 60.4695 69.6918C60.4695 72.3416 59.3972 74.7449 57.6595 76.4827C55.9155 78.2205 53.5245 79.2927 50.8685 79.2927C48.2187 79.2927 45.8154 78.2205 44.0776 76.4827C42.3398 74.7449 41.2614 72.3416 41.2614 69.6918C41.2614 67.042 42.3398 64.6387 44.0776 62.9009C45.8154 61.1631 48.2187 60.0847 50.8685 60.0847C53.5245 60.0847 55.9155 61.1631 57.6595 62.9009ZM50.4372 31.7564L53.8758 33.7406C54.2948 33.981 54.8433 33.8392 55.0774 33.414C55.3301 32.9888 55.176 32.4527 54.757 32.2062L51.6943 30.4376V25.0764C51.6943 24.5896 51.2999 24.189 50.8069 24.189C50.3139 24.189 49.9257 24.5896 49.9257 25.0764V30.9491C49.9257 31.3065 50.1352 31.6146 50.4372 31.7564ZM42.9561 30.3329C42.9561 28.1637 43.8373 26.2041 45.2546 24.7806C46.672 23.3632 48.6378 22.482 50.8069 22.482C52.9761 22.482 54.9357 23.3632 56.3592 24.7806C57.7765 26.2041 58.6578 28.1637 58.6578 30.3329C58.6578 32.502 57.7765 34.4616 56.3592 35.8851C54.9357 37.3025 52.9761 38.1837 50.8069 38.1837C48.6378 38.1837 46.672 37.3025 45.2546 35.8851C43.8373 34.4616 42.9561 32.502 42.9561 30.3329ZM44.0037 37.1423C42.2597 35.3983 41.1813 32.9888 41.1813 30.3329C41.1813 27.6769 42.2597 25.2674 44.0037 23.5296C45.7415 21.7857 48.1509 20.7073 50.8069 20.7073C53.4629 20.7073 55.8724 21.7857 57.6102 23.5296C59.3541 25.2674 60.4325 27.6769 60.4325 30.3329C60.4325 32.9888 59.3541 35.3983 57.6102 37.1423C55.8724 38.88 53.4629 39.9585 50.8069 39.9585C48.1509 39.9585 45.7415 38.88 44.0037 37.1423ZM39.1909 32.8225C37.5455 33.8824 36.0542 35.1703 34.7602 36.6308C33.4722 38.0913 32.3692 39.7181 31.5188 41.4806C31.3092 41.9242 31.4941 42.4542 31.9378 42.6637C32.3692 42.8794 32.9053 42.6945 33.1148 42.2509C33.8974 40.6363 34.9019 39.1389 36.0851 37.8016C37.2682 36.4644 38.6363 35.2874 40.1461 34.3137C40.5589 34.0488 40.6822 33.5003 40.4172 33.0874C40.1584 32.6746 39.6038 32.5575 39.1909 32.8225ZM40.0043 67.2453C38.5007 66.2594 37.1388 65.07 35.9741 63.7328C34.7971 62.3894 33.8112 60.8796 33.0285 59.2528C32.819 58.8091 32.2891 58.6181 31.8454 58.8276C31.4078 59.0433 31.2168 59.5732 31.4263 60.0107C32.2644 61.7793 33.3551 63.4247 34.6369 64.8975C35.9187 66.3641 37.4038 67.6582 39.0307 68.7305C39.4435 68.9955 39.992 68.8845 40.2631 68.4717C40.5281 68.0649 40.4172 67.5165 40.0043 67.2453ZM69.7253 58.7598C69.2878 58.5503 68.7517 58.7413 68.5545 59.185C67.7904 60.8119 66.7982 62.3155 65.6397 63.6712C64.4627 65.0269 63.1193 66.2224 61.6157 67.2145C61.209 67.4857 61.098 68.0341 61.3692 68.4408C61.6342 68.8537 62.1826 68.9646 62.5955 68.6935C64.2285 67.6089 65.7013 66.3025 66.9708 64.8297C68.2464 63.3569 69.3125 61.7116 70.1567 59.9306C70.3539 59.4931 70.169 58.9631 69.7253 58.7598ZM61.2459 33.1676C61.5171 32.7547 62.0655 32.6376 62.4722 32.9087C64.1238 33.9748 65.6027 35.2689 66.8845 36.7294C68.1724 38.196 69.257 39.8352 70.1012 41.6038C70.3108 42.0475 70.1259 42.5713 69.6822 42.787C69.2508 42.9965 68.7147 42.8116 68.5052 42.3679C67.7287 40.7472 66.7304 39.2436 65.5534 37.8941C64.3764 36.5507 63.0207 35.3737 61.5109 34.3877C61.1042 34.1227 60.9871 33.5743 61.2459 33.1676Z" fill="white"></path></g><defs><linearGradient id="paint0_linear_185_77" x1="0" y1="0" x2="104.816" y2="5.31145" gradientUnits="userSpaceOnUse"><stop stop-color="#3EB9FE"></stop><stop offset="0.455" stop-color="#3E74FE"></stop><stop offset="1" stop-color="#DF0BEB"></stop></linearGradient></defs></svg>