<svg xmlns="http://www.w3.org/2000/svg" width="58" height="59" viewBox="0 0 58 59" fill="none"><path d="M30.1965 22.2324C27.6829 22.2324 25.2622 21.5885 23.2067 20.375C23.0457 20.2822 22.8538 20.2636 22.6805 20.3193L16.6998 22.2386L19.4611 17.5271C19.5849 17.3166 19.5787 17.0504 19.4425 16.8461C18.4272 15.2983 17.8947 13.54 17.8947 11.7632C17.8947 5.98683 23.411 1.28776 30.1965 1.28776C36.9758 1.28776 42.4921 5.98683 42.4921 11.7632C42.4921 17.5333 36.9758 22.2324 30.1965 22.2324ZM43.786 11.7632C43.786 5.27485 37.6878 0 30.1965 0C22.699 0 16.607 5.27485 16.607 11.7632C16.607 13.6638 17.1394 15.5397 18.1486 17.2114L14.7311 23.0372C14.5948 23.2725 14.6134 23.5635 14.7806 23.7678C14.9106 23.9225 15.0963 24.0092 15.2883 24.0092C15.3502 24.0092 15.4183 24.003 15.4864 23.9783L22.8043 21.6318C25.0021 22.87 27.5529 23.5201 30.1965 23.5201C37.6878 23.5201 43.786 18.2453 43.786 11.7632Z" fill="white"></path><path d="M14.8563 50.2719H7.86656C6.66548 50.2719 5.60061 49.4609 5.28486 48.2969L1.26681 33.432C1.17395 33.0915 0.821052 32.8872 0.480539 32.9801C0.133836 33.0729 -0.0704716 33.4258 0.0223954 33.7725L4.04044 48.6374C4.50478 50.3586 6.08351 51.5658 7.86656 51.5658H14.8563C15.2154 51.5658 15.5002 51.2749 15.5002 50.922C15.5002 50.5629 15.2154 50.2719 14.8563 50.2719Z" fill="white"></path><mask id="mask0_185_40" style="mask-type:luminance" maskUnits="userSpaceOnUse" x="1" y="17" width="25" height="42"><path d="M1.51953 17.4279H25.2935V58.6484H1.51953V17.4279Z" fill="white"></path></mask><g mask="url(#mask0_185_40)"><path d="M23.5178 56.7726C23.2392 57.1441 22.8182 57.3484 22.3105 57.3484C21.6543 57.3484 21.0723 56.9088 20.8989 56.2773L18.8249 48.7737C18.5525 47.7893 17.6486 47.1021 16.6271 47.1021H11.538C9.84777 47.1021 8.3619 45.9691 7.91614 44.3408L5.26014 34.5898C4.77104 32.7943 4.95058 31.1165 5.73067 30.0888C6.28168 29.3706 7.09891 29.0054 8.16997 29.0054H8.26903C9.94683 29.0054 10.405 29.8845 11.117 32.0452L13.3581 38.8864C13.4448 39.1526 13.6925 39.3322 13.9711 39.3322H19.215C20.0508 39.3322 20.738 40.0132 20.738 40.8923C20.738 41.7343 20.0508 42.4154 19.215 42.4154H12.8257C12.0456 42.4154 11.346 41.9201 11.0922 41.1771L8.35571 33.1968C8.23808 32.8563 7.8728 32.6829 7.53848 32.7943C7.26607 32.8872 7.09891 33.1349 7.09891 33.4073C7.09891 33.4754 7.11129 33.5435 7.13606 33.6116L9.87254 41.5919C10.3059 42.8549 11.4884 43.7031 12.8257 43.7031H18.4844C19.6917 43.7031 20.7504 44.5142 21.0723 45.6781L23.7654 55.4972C23.8893 55.943 23.7964 56.4073 23.5178 56.7726ZM3.58854 23.551C3.58854 21.2603 5.45826 19.3905 7.74898 19.3905C10.0459 19.3905 11.9156 21.2603 11.9156 23.551C11.9156 25.8479 10.0459 27.7176 7.74898 27.7176C5.45826 27.7176 3.58854 25.8479 3.58854 23.551ZM22.3167 45.3376C22.0753 44.4522 21.5366 43.7031 20.837 43.1893C21.5552 42.6754 22.0257 41.8272 22.0257 40.849C22.0257 39.3012 20.7627 38.0382 19.215 38.0382H14.4416L12.3428 31.6428C11.9342 30.4108 11.4946 29.0673 10.405 28.312C12.0766 27.3771 13.2034 25.5941 13.2034 23.551C13.2034 20.5483 10.7579 18.1028 7.74898 18.1028C4.74628 18.1028 2.30078 20.5483 2.30078 23.551C2.30078 25.7612 3.61949 27.6619 5.50779 28.5225C5.21061 28.7392 4.9382 28.9992 4.70913 29.3087C3.6814 30.646 3.42138 32.751 4.01572 34.9303L6.67172 44.6813C7.26607 46.8668 9.272 48.396 11.538 48.396H16.6271C17.0728 48.396 17.4629 48.6932 17.5805 49.1204L19.6545 56.624C19.9888 57.8127 21.0785 58.6423 22.3539 58.6423C23.2206 58.6423 24.0193 58.2461 24.5455 57.5589C25.0718 56.8655 25.2389 55.9925 25.0099 55.1567L22.3167 45.3376Z" fill="white"></path></g><path d="M57.52 32.9801C57.1795 32.8872 56.8204 33.0915 56.7276 33.432L52.7095 48.2969C52.3938 49.4609 51.3351 50.2719 50.1278 50.2719H43.1442C42.7851 50.2719 42.4941 50.5629 42.4941 50.922C42.4941 51.2749 42.7851 51.5658 43.1442 51.5658H50.1278C51.917 51.5658 53.4896 50.3586 53.9601 48.6374L57.9782 33.7725C58.071 33.4258 57.8667 33.0729 57.52 32.9801Z" fill="white"></path><mask id="mask1_185_40" style="mask-type:luminance" maskUnits="userSpaceOnUse" x="31" y="17" width="26" height="42"><path d="M31.6328 17.428H56.9917V58.6485H31.6328V17.428Z" fill="white"></path></mask><g mask="url(#mask1_185_40)"><path d="M39.1729 48.7738L37.0927 56.2774C36.9193 56.9089 36.3374 57.3485 35.6378 57.3485C35.1796 57.3485 34.7586 57.1442 34.4738 56.7727C34.1952 56.4074 34.1086 55.9431 34.2262 55.4974L36.9255 45.6782C37.2413 44.5143 38.3062 43.7032 39.5134 43.7032H45.1721C46.5032 43.7032 47.6919 42.8551 48.1253 41.5921L50.8618 33.6117C50.8865 33.5436 50.8927 33.4755 50.8927 33.4074C50.8927 33.135 50.7256 32.8873 50.4594 32.7945C50.1188 32.683 49.7536 32.8564 49.6421 33.1969L46.9056 41.1773C46.6518 41.914 45.9522 42.4155 45.1721 42.4155H38.7829C37.9409 42.4155 37.2599 41.7345 37.2599 40.8491C37.2599 40.0133 37.9409 39.3323 38.7829 39.3323H44.0206C44.2992 39.3323 44.553 39.1528 44.6397 38.8865L46.8809 32.0453C47.5929 29.8846 48.0448 29.0055 49.7226 29.0055H49.8279C50.8927 29.0055 51.7162 29.3708 52.2672 30.0889C53.0472 31.1167 53.2206 32.7945 52.7377 34.5899L50.0755 44.3409C49.6359 45.9692 48.1439 47.1022 46.4599 47.1022H41.3708C40.3492 47.1022 39.4453 47.7894 39.1729 48.7738ZM46.0822 23.5511C46.0822 21.2604 47.9519 19.3907 50.2427 19.3907C52.5396 19.3907 54.4093 21.2604 54.4093 23.5511C54.4093 25.848 52.5396 27.7177 50.2427 27.7177C47.9519 27.7177 46.0822 25.848 46.0822 23.5511ZM51.3261 44.6814L53.9821 34.9304C54.5765 32.7511 54.3164 30.6523 53.2887 29.3089C53.0534 28.9993 52.7872 28.7393 52.49 28.5226C54.3783 27.662 55.6971 25.7613 55.6971 23.5511C55.6971 20.5484 53.2516 18.1029 50.2427 18.1029C47.24 18.1029 44.7945 20.5484 44.7945 23.5511C44.7945 25.5942 45.9213 27.3772 47.5867 28.3121C46.5032 29.0674 46.0636 30.4109 45.655 31.6429L43.5562 38.0384H38.7829C37.2289 38.0384 35.9721 39.3013 35.9721 40.8925C35.9721 41.8397 36.4426 42.6817 37.1608 43.1894C36.455 43.7094 35.9226 44.4524 35.6811 45.3377L32.9818 55.1568C32.7527 55.9926 32.9261 56.8656 33.4523 57.559C33.9786 58.2462 34.7772 58.6424 35.6873 58.6424C36.9193 58.6424 38.009 57.8128 38.3371 56.6241L40.4173 49.1205C40.535 48.6933 40.925 48.3961 41.3708 48.3961H46.4599C48.7258 48.3961 50.7256 46.8669 51.3261 44.6814Z" fill="white"></path></g><path d="M30.4883 4.86627C29.4482 4.85389 28.4762 5.21917 27.7333 5.94353C26.9965 6.6617 26.5879 7.62752 26.5879 8.66144C26.5879 9.02052 26.8727 9.30531 27.2318 9.30531C27.5909 9.30531 27.8756 9.02052 27.8756 8.66144C27.8756 7.98041 28.1481 7.34272 28.6372 6.86601C29.1263 6.38929 29.7578 6.13545 30.4512 6.16022C31.7575 6.19736 32.8471 7.287 32.8843 8.59333C32.9152 9.69535 32.2342 10.6797 31.1879 11.0326C30.3211 11.3298 29.7392 12.1161 29.7392 13.0014V14.3325C29.7392 14.6916 30.024 14.9764 30.3831 14.9764C30.7359 14.9764 31.0269 14.6916 31.0269 14.3325V13.0014C31.0269 12.6671 31.2498 12.3761 31.6027 12.2585C33.1876 11.7199 34.2216 10.234 34.1782 8.55619C34.1225 6.57502 32.4695 4.92199 30.4883 4.86627Z" fill="white"></path><path d="M30.3822 16.2207C30.0231 16.2207 29.7383 16.5117 29.7383 16.8646V16.8832C29.7383 17.2422 30.0231 17.5208 30.3822 17.5208C30.7351 17.5208 31.026 17.2237 31.026 16.8646C31.026 16.5117 30.7351 16.2207 30.3822 16.2207Z" fill="white"></path></svg>