<svg xmlns="http://www.w3.org/2000/svg" width="59" height="60" viewBox="0 0 59 60" fill="none"><path fill-rule="evenodd" clip-rule="evenodd" d="M56.8244 30.8412C56.8244 29.7073 56.4793 28.5796 55.7891 27.6183L48.0985 35.315C49.0536 36.0052 50.1814 36.3503 51.3152 36.3503C52.7202 36.3503 54.1376 35.8142 55.216 34.7358C56.2821 33.6635 56.8244 32.2523 56.8244 30.8412ZM45.7999 30.8412C45.7999 29.43 46.336 28.0188 47.4145 26.9404C48.4929 25.8682 49.8979 25.3259 51.3152 25.3259C52.4429 25.3259 53.5768 25.6771 54.532 26.3673L46.8352 34.0579C46.1512 33.1028 45.7999 31.9689 45.7999 30.8412ZM58.6053 30.8412C58.6053 32.7022 57.8904 34.5694 56.4608 35.9929C55.0434 37.4164 53.1763 38.1251 51.3152 38.1251C49.448 38.1251 47.5808 37.4164 46.1573 35.9929C44.7338 34.5694 44.0252 32.7022 44.0252 30.8412C44.0252 28.974 44.7338 27.1129 46.1573 25.6833C47.5808 24.2659 49.448 23.5511 51.3152 23.5511C53.1763 23.5511 55.0434 24.2659 56.4608 25.6833C57.8904 27.1129 58.6053 28.974 58.6053 30.8412ZM7.81519 36.11H9.70087V25.5662H7.81519C5.30095 25.5662 3.69874 26.9219 3.00239 28.6474C2.72509 29.3376 2.58951 30.0832 2.58951 30.8412C2.58951 31.593 2.72509 32.3448 3.00239 33.0288C3.69874 34.7604 5.30095 36.11 7.81519 36.11ZM13.3613 25.5662H11.4756V36.11H13.3613C15.8755 36.11 17.4778 34.7604 18.1741 33.0288C18.4514 32.3448 18.587 31.593 18.587 30.8412C18.587 30.0832 18.4514 29.3376 18.1741 28.6474C17.4778 26.9219 15.8755 25.5662 13.3613 25.5662ZM13.3613 37.8847H7.81519C4.45054 37.8847 2.30604 36.0484 1.35704 33.6882C0.993464 32.7823 0.808594 31.8087 0.808594 30.8412C0.808594 29.8675 0.993464 28.8939 1.35704 27.988C2.30604 25.634 4.45054 23.7914 7.81519 23.7914H13.3613C16.7136 23.7914 18.8704 25.634 19.8133 27.988C20.1769 28.8939 20.3556 29.8675 20.3556 30.8412C20.3556 31.8087 20.1769 32.7823 19.8133 33.6882C18.8704 36.0484 16.7136 37.8847 13.3613 37.8847ZM34.8433 48.7859H32.6618C32.1688 48.7859 31.7744 48.3915 31.7744 47.8986V45.7171H29.9627V47.8986C29.9627 48.3915 29.5621 48.7859 29.0753 48.7859H26.8938V50.5977H29.0753C29.5621 50.5977 29.9627 50.9921 29.9627 51.485V53.6665H31.7744V51.485C31.7744 50.9921 32.1688 50.5977 32.6618 50.5977H34.8433V48.7859ZM36.6242 47.8986V51.485C36.6242 51.9719 36.2236 52.3724 35.7306 52.3724H33.5553V54.5539C33.5553 55.0469 33.1486 55.4413 32.6618 55.4413H29.0753C28.5823 55.4413 28.1879 55.0469 28.1879 54.5539V52.3724H26.0064C25.5135 52.3724 25.1191 51.9719 25.1191 51.485V47.8986C25.1191 47.4117 25.5135 47.0112 26.0064 47.0112H28.1879V44.8297C28.1879 44.3367 28.5823 43.9423 29.0753 43.9423H32.6618C33.1486 43.9423 33.5553 44.3367 33.5553 44.8297V47.0112H35.7306C36.2236 47.0112 36.6242 47.4117 36.6242 47.8986ZM38.6947 49.6918C38.6947 51.8548 37.8197 53.8083 36.4023 55.2256C34.9912 56.6429 33.0315 57.518 30.8685 57.518C28.7056 57.518 26.7521 56.6429 25.3348 55.2256C23.9112 53.8083 23.0362 51.8548 23.0362 49.6918C23.0362 47.5288 23.9112 45.5692 25.3348 44.158C26.7521 42.7407 28.7056 41.8656 30.8685 41.8656C33.0315 41.8656 34.9912 42.7407 36.4023 44.158C37.8197 45.5692 38.6947 47.5288 38.6947 49.6918ZM37.6595 42.9009C39.3972 44.6387 40.4695 47.042 40.4695 49.6918C40.4695 52.3416 39.3972 54.7449 37.6595 56.4827C35.9155 58.2205 33.5245 59.2927 30.8685 59.2927C28.2187 59.2927 25.8154 58.2205 24.0776 56.4827C22.3398 54.7449 21.2614 52.3416 21.2614 49.6918C21.2614 47.042 22.3398 44.6387 24.0776 42.9009C25.8154 41.1631 28.2187 40.0847 30.8685 40.0847C33.5245 40.0847 35.9155 41.1631 37.6595 42.9009ZM30.4372 11.7564L33.8758 13.7406C34.2948 13.981 34.8433 13.8392 35.0774 13.414C35.3301 12.9888 35.176 12.4527 34.757 12.2062L31.6943 10.4376V5.07638C31.6943 4.58956 31.2999 4.189 30.8069 4.189C30.3139 4.189 29.9257 4.58956 29.9257 5.07638V10.9491C29.9257 11.3065 30.1352 11.6146 30.4372 11.7564ZM22.9561 10.3329C22.9561 8.16372 23.8373 6.20409 25.2546 4.78059C26.672 3.36325 28.6378 2.48203 30.8069 2.48203C32.9761 2.48203 34.9357 3.36325 36.3592 4.78059C37.7765 6.20409 38.6578 8.16372 38.6578 10.3329C38.6578 12.502 37.7765 14.4616 36.3592 15.8851C34.9357 17.3025 32.9761 18.1837 30.8069 18.1837C28.6378 18.1837 26.672 17.3025 25.2546 15.8851C23.8373 14.4616 22.9561 12.502 22.9561 10.3329ZM24.0037 17.1423C22.2597 15.3983 21.1813 12.9888 21.1813 10.3329C21.1813 7.6769 22.2597 5.26741 24.0037 3.52963C25.7415 1.78569 28.1509 0.707275 30.8069 0.707275C33.4629 0.707275 35.8724 1.78569 37.6102 3.52963C39.3541 5.26741 40.4325 7.6769 40.4325 10.3329C40.4325 12.9888 39.3541 15.3983 37.6102 17.1423C35.8724 18.88 33.4629 19.9585 30.8069 19.9585C28.1509 19.9585 25.7415 18.88 24.0037 17.1423ZM19.1909 12.8225C17.5455 13.8824 16.0542 15.1703 14.7602 16.6308C13.4722 18.0913 12.3692 19.7181 11.5188 21.4806C11.3092 21.9242 11.4941 22.4542 11.9378 22.6637C12.3692 22.8794 12.9053 22.6945 13.1148 22.2509C13.8974 20.6363 14.9019 19.1389 16.0851 17.8016C17.2682 16.4644 18.6363 15.2874 20.1461 14.3137C20.5589 14.0488 20.6822 13.5003 20.4172 13.0874C20.1584 12.6746 19.6038 12.5575 19.1909 12.8225ZM20.0043 47.2453C18.5007 46.2594 17.1388 45.07 15.9741 43.7328C14.7971 42.3894 13.8112 40.8796 13.0285 39.2528C12.819 38.8091 12.2891 38.6181 11.8454 38.8276C11.4078 39.0433 11.2168 39.5732 11.4263 40.0107C12.2644 41.7793 13.3551 43.4247 14.6369 44.8975C15.9187 46.3641 17.4038 47.6582 19.0307 48.7305C19.4435 48.9955 19.992 48.8845 20.2631 48.4717C20.5281 48.0649 20.4172 47.5165 20.0043 47.2453ZM49.7253 38.7598C49.2878 38.5503 48.7517 38.7413 48.5545 39.185C47.7904 40.8119 46.7982 42.3155 45.6397 43.6712C44.4627 45.0269 43.1193 46.2224 41.6157 47.2145C41.209 47.4857 41.098 48.0341 41.3692 48.4408C41.6342 48.8537 42.1826 48.9646 42.5955 48.6935C44.2285 47.6089 45.7013 46.3025 46.9708 44.8297C48.2464 43.3569 49.3125 41.7116 50.1567 39.9306C50.3539 39.4931 50.169 38.9631 49.7253 38.7598ZM41.2459 13.1676C41.5171 12.7547 42.0655 12.6376 42.4722 12.9087C44.1238 13.9748 45.6027 15.2689 46.8845 16.7294C48.1724 18.196 49.257 19.8352 50.1012 21.6038C50.3108 22.0475 50.1259 22.5713 49.6822 22.787C49.2508 22.9965 48.7147 22.8116 48.5052 22.3679C47.7287 20.7472 46.7304 19.2436 45.5534 17.8941C44.3764 16.5507 43.0207 15.3737 41.5109 14.3877C41.1042 14.1227 40.9871 13.5743 41.2459 13.1676Z" fill="white"></path></svg>