<svg xmlns="http://www.w3.org/2000/svg" width="41" height="63" viewBox="0 0 41 63" fill="none"><path d="M0 11.3867V5.96543C0 2.68712 2.66698 0.0201416 5.94529 0.0201416H34.7312C38.0095 0.0201416 40.6698 2.68712 40.6698 5.96543C40.6698 6.2946 40.4078 6.56332 40.0786 6.56332C39.7495 6.56332 39.4807 6.2946 39.4807 5.96543C39.4807 3.35219 37.3512 1.22264 34.7312 1.22264H5.94529C3.33205 1.22264 1.19578 3.35219 1.19578 5.96543V10.7888H0.597889C0.268714 10.7888 0 11.0576 0 11.3867ZM39.474 56.2821C39.474 58.902 37.3445 61.0316 34.7312 61.0316H5.94529C3.33205 61.0316 1.19578 58.902 1.19578 56.2821V51.4654H0.597889C0.268714 51.4654 0 51.1966 0 50.8675V56.2821C0 59.5604 2.66698 62.2273 5.94529 62.2273H34.7312C38.0095 62.2273 40.6698 59.5604 40.6698 56.2821C40.6698 55.9529 40.4078 55.6842 40.0786 55.6842C39.7427 55.6842 39.474 55.9529 39.474 56.2821ZM30.19 30.3713C28.2216 30.3713 26.6094 31.9769 26.6094 33.952C26.6094 35.7187 27.9059 37.1899 29.5921 37.4721V42.7187C29.5921 45.5805 27.261 47.9116 24.3992 47.9116C21.5374 47.9116 19.2063 45.5805 19.2063 42.7187V31.9635C23.8752 31.6544 27.5834 27.7581 27.5834 23.0153V17.3723C27.5834 15.7533 26.428 14.403 24.8896 14.1007C24.6746 13.5633 24.1573 13.1804 23.546 13.1804C22.7399 13.1804 22.0883 13.832 22.0883 14.6314C22.0883 15.4376 22.7399 16.0892 23.546 16.0892C24.0969 16.0892 24.5739 15.7735 24.8224 15.3167C25.7226 15.5719 26.3877 16.3915 26.3877 17.3656V23.0086C26.3877 27.3013 22.8944 30.7878 18.6084 30.7878C14.3157 30.7878 10.8292 27.3013 10.8292 23.0086V17.3723C10.8292 16.284 11.6487 15.3906 12.6967 15.2629C12.9318 15.7533 13.429 16.0959 14.0067 16.0959C14.8128 16.0959 15.4645 15.4376 15.4645 14.6382C15.4645 13.832 14.8128 13.1871 14.0067 13.1871C13.4155 13.1871 12.8983 13.5432 12.6766 14.0537C10.977 14.2015 9.63338 15.6324 9.63338 17.3723V23.0153C9.63338 27.7581 13.3349 31.6544 18.0038 31.9635V42.7187C18.0038 46.2456 20.8723 49.1074 24.3992 49.1074C27.9193 49.1074 30.7879 46.2456 30.7879 42.7187V37.4721C32.4808 37.1899 33.7706 35.7187 33.7706 33.952C33.7706 31.9769 32.165 30.3713 30.19 30.3713ZM23.546 14.8934C23.405 14.8934 23.284 14.7725 23.284 14.6314C23.284 14.4904 23.405 14.3762 23.546 14.3762C23.6871 14.3762 23.8013 14.4904 23.8013 14.6314C23.8013 14.7792 23.6871 14.8934 23.546 14.8934ZM14.0134 14.3762C14.1545 14.3762 14.2687 14.4971 14.2687 14.6382C14.2687 14.7792 14.1545 14.8934 14.0134 14.8934C13.8656 14.8934 13.7514 14.7792 13.7514 14.6382C13.7514 14.4971 13.8656 14.3762 14.0134 14.3762ZM30.19 36.3368C28.88 36.3368 27.8051 35.2619 27.8051 33.952C27.8051 32.6353 28.88 31.5671 30.19 31.5671C31.5067 31.5671 32.5748 32.6353 32.5748 33.952C32.5748 35.2619 31.5067 36.3368 30.19 36.3368ZM20.3416 54.0786C18.8099 54.0786 18.0038 55.2878 18.0038 56.4701C18.0038 57.6592 18.8032 58.8684 20.3416 58.8684C21.047 58.8684 21.665 58.593 22.095 58.0959C22.4645 57.6659 22.6727 57.0882 22.6727 56.4701C22.666 55.2811 21.8666 54.0786 20.3416 54.0786ZM20.3416 57.6659C19.5019 57.6659 19.2063 57.021 19.2063 56.4701C19.2063 55.9193 19.5019 55.2744 20.3416 55.2744C21.1746 55.2744 21.4769 55.9193 21.4769 56.4701C21.4702 57.021 21.1746 57.6659 20.3416 57.6659ZM30.19 32.1852C29.2226 32.1852 28.4299 32.9711 28.4299 33.952C28.4299 34.9193 29.2226 35.7187 30.19 35.7187C31.1641 35.7187 31.9568 34.926 31.9568 33.952C31.9568 32.9779 31.1641 32.1852 30.19 32.1852ZM30.19 34.5162C29.8809 34.5162 29.6257 34.261 29.6257 33.9452C29.6257 33.6295 29.8742 33.3742 30.19 33.3742C30.5057 33.3742 30.761 33.6295 30.761 33.9452C30.761 34.261 30.5057 34.5162 30.19 34.5162ZM28.0739 5.15257C28.0739 5.48175 27.8051 5.74374 27.4827 5.74374H13.2006C12.8714 5.74374 12.6027 5.48175 12.6027 5.15257C12.6027 4.8234 12.8714 4.55468 13.2006 4.55468H27.4827C27.8051 4.55468 28.0739 4.8234 28.0739 5.15257ZM40.6698 11.3867V23.9088C40.6698 24.238 40.4078 24.5067 40.0786 24.5067C39.7495 24.5067 39.4807 24.238 39.4807 23.9088V11.9913H1.19578V50.2696H39.474V34.0057C39.474 33.6765 39.7427 33.4078 40.0719 33.4078C40.4011 33.4078 40.6698 33.6765 40.6698 34.0057V50.8675C40.6698 51.1966 40.4011 51.4654 40.0719 51.4654H0.597889C0.268714 51.4654 0 51.1966 0 50.8675V11.3867C0 11.0576 0.268714 10.7956 0.597889 10.7956H40.0719C40.4078 10.7888 40.6698 11.0576 40.6698 11.3867Z" fill="white"></path></svg>